<svg width="40" height="40" viewBox="0 0 40 40" fill="none" xmlns="http://www.w3.org/2000/svg">
<path opacity="0.4" fill-rule="evenodd" clip-rule="evenodd" d="M37.9167 14.1665V7.49984C37.9167 6.59284 37.2963 6.05034 36.8752 5.75767C36.4623 5.47082 35.8873 5.1847 35.28 4.88247L32.0832 3.2904C31.804 3.14839 31.3482 2.9165 30.8333 2.9165C30.3185 2.9165 29.8627 3.14839 29.5835 3.2904L26.3867 4.88247C25.7793 5.1847 25.2043 5.47082 24.7915 5.75767C24.3703 6.05034 23.75 6.59284 23.75 7.49984V14.1665C23.75 15.0735 24.3703 15.616 24.7915 15.9087C25.2043 16.1955 25.7793 16.4816 26.3867 16.7838L29.5835 18.376C29.8627 18.518 30.3185 18.7498 30.8333 18.7498C31.3482 18.7498 31.804 18.518 32.0832 18.376L35.28 16.7838C35.8873 16.4817 36.4623 16.1955 36.8752 15.9087C37.2963 15.616 37.9167 15.0735 37.9167 14.1665ZM29.5833 15.5821L26.25 13.8769V10.0487L29.5833 11.7087V15.5821ZM32.0833 11.7087L35.4167 10.0487V13.8769L32.0833 15.5821V11.7087Z" fill="#38E5FF"/>
<path opacity="0.4" fill-rule="evenodd" clip-rule="evenodd" d="M16.2497 14.1665V7.49984C16.2497 6.59284 15.6293 6.05034 15.2081 5.75767C14.7954 5.47082 14.2204 5.1847 13.613 4.88247L10.4161 3.2904C10.137 3.14839 9.68116 2.9165 9.16634 2.9165C8.65152 2.9165 8.19572 3.14839 7.91657 3.2904L4.71972 4.88247C4.11234 5.1847 3.53732 5.47082 3.12456 5.75767C2.70339 6.05034 2.08301 6.59284 2.08301 7.49984V14.1665C2.08301 15.0735 2.70341 15.616 3.12456 15.9087C3.53732 16.1955 4.11231 16.4816 4.71969 16.7838L7.91657 18.376C8.19572 18.518 8.65152 18.7498 9.16634 18.7498C9.68116 18.7498 10.137 18.518 10.4161 18.376L13.6129 16.7838C14.2203 16.4817 14.7954 16.1955 15.2081 15.9087C15.6293 15.616 16.2497 15.0735 16.2497 14.1665ZM7.91634 15.5821L4.58301 13.8769V10.0487L7.91634 11.7087V15.5821ZM10.4163 11.7087L13.7497 10.0487V13.8769L10.4163 15.5821V11.7087Z" fill="#38E5FF"/>
<path d="M17.917 10.8335C17.917 10.1431 18.4767 9.5835 19.167 9.5835H20.8337C21.524 9.5835 22.0837 10.1431 22.0837 10.8335C22.0837 11.5238 21.524 12.0835 20.8337 12.0835H19.167C18.4767 12.0835 17.917 11.5238 17.917 10.8335Z" fill="#38E5FF"/>
<path d="M3.33301 19.5835C4.02336 19.5835 4.58301 20.1432 4.58301 20.8335V26.6668C4.58301 27.8632 4.58453 28.6665 4.64681 29.2788C4.70698 29.8702 4.81334 30.1435 4.93411 30.3243C5.08611 30.5517 5.28143 30.747 5.50891 30.899C5.68966 31.0198 5.96294 31.1262 6.55439 31.1863C7.16673 31.2487 7.96994 31.2502 9.16634 31.2502C9.85671 31.2502 10.4163 31.8098 10.4163 32.5002C10.4163 33.1905 9.85671 33.7502 9.16634 33.7502H9.10244C7.98648 33.7502 7.05526 33.7502 6.30138 33.6735C5.51226 33.5933 4.77998 33.4187 4.11998 32.9777C3.61953 32.6433 3.18984 32.2137 2.85544 31.7132C2.41444 31.0532 2.23993 30.321 2.15964 29.5318C2.08296 28.778 2.08298 27.8467 2.08301 26.7308V20.8335C2.08301 20.1432 2.64266 19.5835 3.33301 19.5835Z" fill="#38E5FF"/>
<path d="M36.6663 19.5835C37.3567 19.5835 37.9163 20.1432 37.9163 20.8335V26.7307C37.9163 27.8465 37.9163 28.778 37.8397 29.5318C37.7595 30.321 37.5848 31.0532 37.1438 31.7132C36.8095 32.2137 36.3798 32.6433 35.8793 32.9777C35.2193 33.4187 34.4872 33.5933 33.698 33.6735C32.944 33.7502 32.0128 33.7502 30.8968 33.7502H30.833C30.1427 33.7502 29.583 33.1905 29.583 32.5002C29.583 31.8098 30.1427 31.2502 30.833 31.2502C32.0293 31.2502 32.8327 31.2487 33.445 31.1863C34.0363 31.1262 34.3097 31.0198 34.4905 30.899C34.718 30.747 34.9132 30.5517 35.0652 30.3243C35.186 30.1435 35.2923 29.8702 35.3525 29.2788C35.4148 28.6665 35.4163 27.8632 35.4163 26.6668V20.8335C35.4163 20.1432 35.976 19.5835 36.6663 19.5835Z" fill="#38E5FF"/>
<path fill-rule="evenodd" clip-rule="evenodd" d="M24.167 27.0337V25.3572C24.167 23.0647 22.2772 21.25 20.0003 21.25C17.7235 21.25 15.8337 23.0647 15.8337 25.3572V27.0337C15.1124 27.1217 14.4163 27.336 13.8618 27.8792C13.3016 28.428 13.0907 29.1017 12.9998 29.7638C12.9168 30.3682 12.9169 31.2718 12.917 32.1023C12.9169 32.9327 12.9168 33.6793 12.9998 34.2838C13.0907 34.9458 13.3016 35.6197 13.8618 36.1683C14.4184 36.7137 15.0956 36.9155 15.7591 37.0028C16.3709 37.0835 17.1285 37.0833 17.9793 37.0833H22.0213C22.8722 37.0833 23.6298 37.0835 24.2417 37.0028C24.905 36.9155 25.5822 36.7137 26.1388 36.1683C26.6992 35.6197 26.91 34.9458 27.0008 34.2838C27.0838 33.6793 27.0838 32.9327 27.0837 32.1023C27.0838 31.2718 27.0838 30.3682 27.0008 29.7638C26.91 29.1017 26.6992 28.428 26.1388 27.8792C25.5843 27.336 24.8882 27.1217 24.167 27.0337ZM18.3337 25.3572C18.3337 24.4937 19.0555 23.75 20.0003 23.75C20.9452 23.75 21.667 24.4937 21.667 25.3572V26.9643H18.3337V25.3572Z" fill="#38E5FF"/>
</svg>
