<svg width="40" height="40" viewBox="0 0 40 40" fill="none" xmlns="http://www.w3.org/2000/svg">
<path d="M29.129 13.3336C29.1413 13.3335 29.1538 13.3335 29.1663 13.3335C33.3085 13.3335 36.6663 16.6913 36.6663 20.8335C36.6663 24.9757 33.3085 28.3335 29.1663 28.3335H11.6663C7.06397 28.3335 3.33301 24.6025 3.33301 20.0002C3.33301 15.6674 6.63964 12.1069 10.867 11.7047M29.129 13.3336C29.1537 13.0591 29.1663 12.7811 29.1663 12.5002C29.1663 7.43755 25.0623 3.3335 19.9997 3.3335C15.2051 3.3335 11.2702 7.01453 10.867 11.7047M29.129 13.3336C28.9585 15.2243 28.214 16.9495 27.071 18.3335M10.867 11.7047C11.1301 11.6796 11.3967 11.6668 11.6663 11.6668C13.5427 11.6668 15.2742 12.287 16.6672 13.3335" stroke="#38E5FF" stroke-width="2.5" stroke-linecap="round" stroke-linejoin="round"/>
<path opacity="0.4" d="M23.333 34.5835V34.1668C23.333 33.2463 22.5868 32.5002 21.6663 32.5002H19.9997M23.333 34.5835V35.0002C23.333 35.9207 22.5868 36.6668 21.6663 36.6668H18.333C17.4125 36.6668 16.6663 35.9207 16.6663 35.0002V34.5835M23.333 34.5835H31.6663M19.9997 32.5002H18.333C17.4125 32.5002 16.6663 33.2463 16.6663 34.1668V34.5835M19.9997 32.5002V28.3335M16.6663 34.5835H8.33301" stroke="#38E5FF" stroke-width="2.5" stroke-linecap="round" stroke-linejoin="round"/>
</svg>
