<svg width="40" height="40" viewBox="0 0 40 40" fill="none" xmlns="http://www.w3.org/2000/svg">
<g id="anonymous">
<path id="Vector" d="M11.667 25C8.90558 25 6.66699 27.2385 6.66699 30C6.66699 32.7615 8.90558 35 11.667 35C14.4284 35 16.667 32.7615 16.667 30C16.667 27.2385 14.4284 25 11.667 25Z" stroke="#38E5FF" stroke-width="2.5" stroke-linecap="round" stroke-linejoin="round"/>
<path id="Vector_2" d="M28.333 25C25.5715 25 23.333 27.2385 23.333 30C23.333 32.7615 25.5715 35 28.333 35C31.0945 35 33.333 32.7615 33.333 30C33.333 27.2385 31.0945 25 28.333 25Z" stroke="#38E5FF" stroke-width="2.5" stroke-linecap="round" stroke-linejoin="round"/>
<path id="Vector_3" opacity="0.4" d="M23.3337 28.3335H16.667" stroke="#38E5FF" stroke-width="2.5" stroke-linecap="round" stroke-linejoin="round"/>
<path id="Vector_4" d="M36.6663 21.6666C32.572 19.6208 26.622 18.3333 19.9997 18.3333C13.3773 18.3333 7.42732 19.6208 3.33301 21.6666" stroke="#38E5FF" stroke-width="2.5" stroke-linecap="round" stroke-linejoin="round"/>
<path id="Vector_5" opacity="0.4" d="M31.6663 19.1667L29.9038 7.85408C29.5443 5.547 27.0383 4.29687 25.0152 5.41532L23.9902 5.98192C21.5028 7.35687 18.4965 7.35687 16.0092 5.98192L14.9842 5.41532C12.9609 4.29687 10.455 5.547 10.0955 7.8541L8.33301 19.1667" stroke="#38E5FF" stroke-width="2.5" stroke-linecap="round" stroke-linejoin="round"/>
</g>
</svg>
