<svg width="40" height="40" viewBox="0 0 40 40" fill="none" xmlns="http://www.w3.org/2000/svg">
<path d="M19.9972 3.3335C15.248 3.3335 12.1687 6.69848 8.52692 7.925C7.04613 8.42371 6.30575 8.67306 6.0061 9.02458C5.70647 9.3761 5.61873 9.88975 5.44325 10.917C3.56542 21.9102 7.66983 32.0735 17.4583 36.0293C18.51 36.4543 19.036 36.6668 20.0023 36.6668C20.9687 36.6668 21.4945 36.4543 22.5462 36.0293C32.3342 32.0733 36.4347 21.9102 34.5563 10.917C34.3807 9.88956 34.293 9.37583 33.9932 9.02431C33.6935 8.6728 32.9532 8.42358 31.4725 7.92515C27.8293 6.69875 24.7465 3.3335 19.9972 3.3335Z" stroke="#38E5FF" stroke-width="2.5" stroke-linecap="round" stroke-linejoin="round"/>
<path opacity="0.4" d="M19.9997 26.6665C20.2323 26.6665 20.4487 26.5605 20.8812 26.3485L24.3583 24.6445C25.897 23.8905 26.6663 23.5135 26.6663 22.9165V15.4165M19.9997 26.6665C19.767 26.6665 19.5507 26.5605 19.1182 26.3485L15.641 24.6445C14.1023 23.8905 13.333 23.5135 13.333 22.9165V15.4165M19.9997 26.6665V19.1665M26.6663 15.4165C26.6663 14.8195 25.897 14.4425 24.3583 13.6885L20.8812 11.9845C20.4487 11.7725 20.2323 11.6665 19.9997 11.6665C19.767 11.6665 19.5507 11.7725 19.1182 11.9845L15.641 13.6885C14.1023 14.4425 13.333 14.8195 13.333 15.4165M26.6663 15.4165C26.6663 16.0135 25.897 16.3905 24.3583 17.1445L20.8812 18.8485C20.4487 19.0605 20.2323 19.1665 19.9997 19.1665M13.333 15.4165C13.333 16.0135 14.1023 16.3905 15.641 17.1445L19.1182 18.8485C19.5507 19.0605 19.767 19.1665 19.9997 19.1665" stroke="#38E5FF" stroke-width="2.5" stroke-linejoin="round"/>
</svg>
