<svg width="40" height="40" viewBox="0 0 40 40" fill="none" xmlns="http://www.w3.org/2000/svg">
<path d="M29.1663 22.499V24.9988C29.1663 30.4987 29.1663 33.2485 27.4578 34.957C25.7492 36.6655 22.9993 36.6655 17.4997 36.6655C12 36.6655 9.25009 36.6655 7.54156 34.957C5.83301 33.2485 5.83301 30.4987 5.83301 24.9988V14.9989C5.83301 9.49916 5.83301 6.74931 7.54156 5.04076C8.96886 3.61346 11.1229 3.37851 14.9997 3.33984" stroke="#38E5FF" stroke-width="2.5" stroke-linecap="round"/>
<path opacity="0.4" d="M26.6655 3.33325C24.291 3.33325 22.7513 4.8475 20.9305 5.39944C20.19 5.62385 19.8198 5.73605 19.67 5.89424C19.5201 6.05242 19.4763 6.28357 19.3886 6.74585C18.4496 11.6928 20.502 16.2662 25.3961 18.0464C25.922 18.2376 26.185 18.3333 26.6681 18.3333C27.1513 18.3333 27.4143 18.2376 27.9401 18.0464C32.834 16.2662 34.8843 11.6927 33.9451 6.74585C33.8573 6.28349 33.8135 6.0523 33.6636 5.89412C33.5138 5.73594 33.1436 5.62379 32.4033 5.39949C30.5816 4.84762 29.0401 3.33325 26.6655 3.33325Z" stroke="#38E5FF" stroke-width="2.5" stroke-linecap="round" stroke-linejoin="round"/>
<path d="M15.833 31.6665H19.1663" stroke="#38E5FF" stroke-width="2.5" stroke-linecap="round" stroke-linejoin="round"/>
</svg>
