<svg width="40" height="40" viewBox="0 0 40 40" fill="none" xmlns="http://www.w3.org/2000/svg">
<path d="M23.333 3.33325H16.6663C11.201 3.33325 8.46827 3.33325 6.53119 4.68962C5.81452 5.19142 5.19117 5.81477 4.68937 6.53144C3.33301 8.46852 3.33301 11.2012 3.33301 16.6666C3.33301 22.1319 3.33301 24.8646 4.68937 26.8018C5.19117 27.5184 5.81452 28.1418 6.53119 28.6436C8.46827 29.9999 11.201 29.9999 16.6663 29.9999H23.333C28.7983 29.9999 31.531 29.9999 33.4682 28.6436C34.1848 28.1418 34.8082 27.5184 35.31 26.8018C36.6663 24.8646 36.6663 22.1319 36.6663 16.6666C36.6663 11.2012 36.6663 8.46852 35.31 6.53144C34.8082 5.81477 34.1848 5.19142 33.4682 4.68962C31.531 3.33325 28.7983 3.33325 23.333 3.33325Z" stroke="#38E5FF" stroke-width="2.5" stroke-linecap="round"/>
<path opacity="0.4" d="M26.667 13.3333L28.7112 15.0952C29.5707 15.836 30.0003 16.2064 30.0003 16.6666C30.0003 17.1268 29.5707 17.4973 28.7112 18.2379L26.667 19.9999" stroke="#38E5FF" stroke-width="2.5" stroke-linecap="round" stroke-linejoin="round"/>
<path opacity="0.4" d="M13.3333 13.3333L11.2891 15.0952C10.4297 15.836 10 16.2064 10 16.6666C10 17.1268 10.4297 17.4973 11.2891 18.2379L13.3333 19.9999" stroke="#38E5FF" stroke-width="2.5" stroke-linecap="round" stroke-linejoin="round"/>
<path opacity="0.4" d="M21.6663 11.6667L18.333 21.6667" stroke="#38E5FF" stroke-width="2.5" stroke-linecap="round" stroke-linejoin="round"/>
<path d="M24.4266 36.6667L23.7286 35.9685C22.1547 34.3948 21.7646 31.9907 22.7599 30" stroke="#38E5FF" stroke-width="2.5" stroke-linecap="round"/>
<path d="M15 36.6667L15.6981 35.9685C17.2718 34.3948 17.662 31.9907 16.6666 30" stroke="#38E5FF" stroke-width="2.5" stroke-linecap="round"/>
<path d="M11.667 36.6665H28.3337" stroke="#38E5FF" stroke-width="2.5" stroke-linecap="round"/>
</svg>
